<svg width="30" height="28" viewBox="0 0 30 28" fill="none" xmlns="http://www.w3.org/2000/svg">
<path d="M14.84 2.56667C18.7973 2.56667 19.292 2.56667 20.8997 2.68333C24.9807 2.8 26.8357 4.66667 26.9593 8.4C27.083 9.91667 27.083 10.2667 27.083 14C27.083 17.7333 27.083 18.2 26.9593 19.6C26.8357 23.3333 24.857 25.2 20.8997 25.3167C19.292 25.4333 18.921 25.4333 14.84 25.4333C10.8827 25.4333 10.388 25.4333 8.904 25.3167C4.823 25.2 2.968 23.3333 2.84433 19.6C2.72067 18.0833 2.72067 17.7333 2.72067 14C2.72067 10.2667 2.72067 9.8 2.84433 8.4C2.968 4.66667 4.94666 2.8 8.904 2.68333C10.388 2.56667 10.8827 2.56667 14.84 2.56667ZM14.84 0C10.759 0 10.2643 0 8.78033 0.116667C3.339 0.35 0.371 3.15 0.123667 8.28333C0 9.68333 0 10.15 0 14C0 17.85 0 18.3167 0.123667 19.7167C0.371 24.85 3.339 27.65 8.78033 27.8833C10.2643 28 10.759 28 14.84 28C18.921 28 19.4157 28 20.8997 27.8833C26.341 27.65 29.309 24.85 29.5563 19.7167C29.68 18.3167 29.68 17.85 29.68 14C29.68 10.15 29.68 9.68333 29.5563 8.28333C29.309 3.15 26.341 0.35 20.8997 0.116667C19.4157 0 18.921 0 14.84 0ZM14.84 6.76667C10.6353 6.76667 7.17267 10.0333 7.17267 14C7.17267 17.9667 10.6353 21.2333 14.84 21.2333C19.0447 21.2333 22.5073 17.9667 22.5073 14C22.5073 10.0333 19.0447 6.76667 14.84 6.76667ZM14.84 18.6667C12.1193 18.6667 9.89333 16.5667 9.89333 14C9.89333 11.4333 12.1193 9.33333 14.84 9.33333C17.5607 9.33333 19.7867 11.4333 19.7867 14C19.7867 16.5667 17.5607 18.6667 14.84 18.6667ZM22.7547 4.9C21.7653 4.9 21.0233 5.6 21.0233 6.53333C21.0233 7.46667 21.7653 8.16667 22.7547 8.16667C23.744 8.16667 24.486 7.46667 24.486 6.53333C24.486 5.6 23.744 4.9 22.7547 4.9Z" fill="#37CECE"/>
</svg>
